<?xml version="1.0" encoding="utf-8"?>
<!-- Svg Vector Icons : http://www.onlinewebfonts.com/icon -->
<!DOCTYPE svg PUBLIC "-//W3C//DTD SVG 1.1//EN" "http://www.w3.org/Graphics/SVG/1.1/DTD/svg11.dtd">
<svg version="1.1" xmlns="http://www.w3.org/2000/svg" xmlns:xlink="http://www.w3.org/1999/xlink" x="0px" y="0px" viewBox="0 0 256 256" enable-background="new 0 0 256 256" xml:space="preserve">
<metadata> Svg Vector Icons : http://www.onlinewebfonts.com/icon </metadata>
<g><g><g><path fill="#000000" d="M123.7,10.2c-0.4,0.1-2.3,0.4-4.2,0.7C104.8,13.4,90.9,23.8,84,37.6c-8.2,16.4-7,33.8,3.5,50.2c4.7,7.2,7.1,13.1,8.9,21.2c1.2,5.7,1.2,19.9,0,25.7c-1.9,8.8-4.9,16.2-9.7,23c-2.5,3.5-5.4,8.9-6,11.1l-0.3,1.1H45.2H10v38.1V246h118h118v-38.1v-38.1h-35.1h-35.1l-1.7-3.7c-0.9-2-3-5.6-4.6-7.9c-5.2-7.6-8.1-14.6-10-23.6c-1.2-5.7-1.2-20,0-25.6c1.8-7.9,4.5-14.6,8.9-21.3c3.4-5.2,6-10.8,7.4-16.3c1.7-6.4,1.8-16.3,0.2-22.6c-4.8-19.5-21-34.7-40.5-38.1C131.7,10.1,125.8,9.8,123.7,10.2z M134.7,18.1c13.2,2.1,24.8,10.7,30.9,22.7c4.8,9.6,5.6,21.9,2.1,32.1c-1.2,3.6-2.2,5.6-7,13.4c-4.9,8-7.9,16.6-9.2,26.7c-2.2,16.8,2.1,35.5,11.5,48.8c2.2,3.2,4.5,7.2,4.5,7.9c0,0.1-17.7,0.2-39.5,0.2c-21.7,0-39.5-0.1-39.5-0.2c0-0.7,2.1-4.3,4.5-7.9c6.5-9.5,10.1-19.5,11.7-32.3c1.7-14.3-1.8-30.9-9-42.7c-1.2-2-3-4.9-4-6.5c-3.5-5.6-5.1-11.4-5.4-19.1c-0.7-16.4,7.2-30.8,21.3-38.5c3.5-1.9,9.2-3.9,12.9-4.5C124.1,17.5,131,17.5,134.7,18.1z M238.4,207.9v30.5H128H17.6v-30.5v-30.5H128h110.4V207.9z"/><path fill="#000000" d="M122.5,25.7c-6.8,1.1-12.7,4.3-18.3,9.9C98,41.9,94.7,48.5,94,56.4c-0.4,4,0.1,5.6,2.1,6.4c3,1.2,5.3-0.9,5.3-4.9c0-5.7,3.2-13,7.7-17.4c4.4-4.4,11.7-7.6,17.4-7.7c4,0,6.1-2.3,4.9-5.3C130.4,25.2,128.1,24.8,122.5,25.7z"/><path fill="#000000" d="M99.6,67.6c-2.6,1.3-2.4,5.4,0.4,6.6c4.2,1.8,7.2-4.7,3-6.6C101.5,67,101,67,99.6,67.6z"/><path fill="#000000" d="M29.7,193.3c-3.5,1.3-6.6,4.4-7.7,7.9c-0.4,1-0.6,5.3-0.6,11.8v10.2h3.8H29v-3.8v-3.8h3.8h3.8v3.8v3.8h3.8h3.8v-10c0-6.5-0.2-10.8-0.6-12c-0.8-2.6-5.2-7-7.8-7.8C33.5,192.5,31.6,192.6,29.7,193.3z M35.7,201.2c0.8,0.8,1,1.6,1,3.8v2.9h-3.8H29v-2.9c0-3.6,1-4.8,3.8-4.8C34.1,200.3,35.1,200.6,35.7,201.2z"/><path fill="#000000" d="M48.1,207.9v15.2h3.8h3.8v-3.8v-3.8h2.4c4,0,6.1-0.9,9-3.8c2.6-2.6,3.8-5,3.8-7.6c0-2.6-1.2-5-3.8-7.6c-3.3-3.4-4.8-3.8-12.8-3.8h-6.2L48.1,207.9L48.1,207.9z M62.3,201.2c0.6,0.6,1,1.6,1,2.9c0,2.9-1.2,3.8-4.8,3.8h-2.9v-3.8v-3.8h2.9C60.8,200.3,61.6,200.5,62.3,201.2z"/><path fill="#000000" d="M74.7,207.9v15.2h3.8h3.8v-3.8v-3.8h2.4c4,0,6.1-0.9,9-3.8c2.6-2.6,3.8-5,3.8-7.6c0-2.6-1.2-5-3.8-7.6c-3.3-3.4-4.8-3.8-12.8-3.8h-6.2V207.9L74.7,207.9z M89,201.2c0.6,0.6,1,1.6,1,2.9c0,2.9-1.2,3.8-4.8,3.8h-2.9v-3.8v-3.8h2.9C87.4,200.3,88.2,200.5,89,201.2z"/><path fill="#000000" d="M101.4,207.9v15.2h3.8h3.8v-4.9v-4.9l3.8,3.8c2.5,2.5,3.8,4.1,3.8,4.9c0,1,0.1,1.1,3.8,1.1h3.8v-1.3c0-2.4-1-4.7-2.8-6.8l-1.9-2.1l1.8-2c4.1-4.6,3.8-9.8-0.9-14.4c-3.3-3.4-4.8-3.8-12.8-3.8h-6.2L101.4,207.9L101.4,207.9z M115.6,201.2c0.6,0.6,1,1.6,1,2.9c0,2.9-1.2,3.8-4.8,3.8H109v-3.8v-3.8h2.9C114.1,200.3,114.9,200.5,115.6,201.2z"/><path fill="#000000" d="M136.1,193.3c-2.4,0.8-6.8,5.3-7.5,7.8c-0.3,1.1-0.6,4.2-0.6,6.9c0,6.5,0.6,8.2,3.8,11.4c5,5.1,10.2,5.1,15.2,0c3.2-3.2,3.8-4.9,3.8-11.4s-0.6-8.2-3.8-11.4C143.5,192.9,140.3,192,136.1,193.3z M142.3,201.2c0.9,0.9,1,1.6,1,6.7c0,6.7-0.5,7.6-3.8,7.6s-3.8-1-3.8-7.6s0.5-7.6,3.8-7.6C140.7,200.3,141.7,200.6,142.3,201.2z"/><path fill="#000000" d="M154.6,196.8c0,4.1,0,4.2,4.4,15.3l4.4,11l4.5-0.1l4.5-0.1l4.4-10.9c4.4-10.8,4.4-11,4.4-15.1v-4.1h-3.8h-3.8v3.5c0,3.5-0.7,5.7-5.1,16l-0.7,1.7l-2.8-7.1c-2.5-6.4-2.8-7.4-2.8-10.6v-3.5h-3.8h-3.8V196.8L154.6,196.8z"/><path fill="#000000" d="M185.1,207.9v15.2h9.5h9.5v-3.8v-3.8h-5.7h-5.7v-1.9v-1.9h5.7h5.7v-3.8v-3.8h-5.7h-5.7v-1.9v-1.9h5.7h5.7v-3.8v-3.8h-9.5h-9.5V207.9z"/><path fill="#000000" d="M207.9,207.9v15.3l5.6-0.2c4.9-0.1,5.9-0.3,8-1.5c3.6-1.9,5.5-3.7,7.3-7.1c1.4-2.7,1.6-3.4,1.6-6.6c0-3.1-0.2-3.9-1.6-6.6c-1.9-3.4-3.8-5.2-7.3-7.1c-2.2-1.1-3.1-1.3-8-1.5l-5.6-0.2V207.9z M220.3,201.6c1.7,1.2,2.9,3.8,2.9,6.3c0,3.9-2.3,6.9-5.9,7.5l-1.8,0.3v-7.8v-7.8l1.8,0.3C218.3,200.6,219.6,201.2,220.3,201.6z"/></g></g></g>
</svg>