<?xml version="1.0" encoding="utf-8"?>
<!-- Svg Vector Icons : http://www.onlinewebfonts.com/icon -->
<!DOCTYPE svg PUBLIC "-//W3C//DTD SVG 1.1//EN" "http://www.w3.org/Graphics/SVG/1.1/DTD/svg11.dtd">
<svg version="1.1" xmlns="http://www.w3.org/2000/svg" xmlns:xlink="http://www.w3.org/1999/xlink" x="0px" y="0px" viewBox="0 0 256 256" enable-background="new 0 0 256 256" xml:space="preserve">
<metadata> Svg Vector Icons : http://www.onlinewebfonts.com/icon </metadata>
<g> <path fill="#a7a9ac" d="M14.4,128.7l25.3-73.9l30.2,10.4l-25.3,73.9L14.4,128.7z"/> <path fill="#040000" d="M91.9,61.1l-2.9,1.4c-3.7,1.8-7.9,2-11.8,0.7l-4.9-1.7c-0.3-0.2-0.6-0.3-0.9-0.4L41.2,50.7 c-2.3-0.8-4.8,0.4-5.5,2.7l-25.4,73.9c-0.4,1.1-0.3,2.3,0.2,3.3c0.5,1,1.4,1.8,2.5,2.2l30.2,10.4c0.5,0.1,1,0.2,1.4,0.2 c1.8,0,3.5-1.2,4.1-2.9l23.9-69.6l1.6,0.6c6,2.1,12.8,1.7,18.5-1.1l2.9-1.4c3.6-1.8,7.9-2,11.7-0.7l55.5,19.1 c-0.6,2.3-1.7,5.1-3.9,6.6c-2.4,1.6-5.9,1.6-10.5,0l-24.8-8.5c-1.2-0.4-2.4-0.3-3.5,0.3s-1.8,1.6-2.2,2.7c0,0.1-3.5,13-14.4,18.8 c-6.9,3.7-15.5,3.9-25.5,0.4c-2.3-0.8-4.8,0.4-5.5,2.7c-0.8,2.3,0.4,4.8,2.7,5.5c5.8,2,11.2,3,16.3,3c5.9,0,11.3-1.3,16.2-3.9 c9.8-5.3,14.8-14.4,17.1-19.9l20.7,7.1c7.4,2.6,13.5,2.2,18.3-1.2c7.7-5.3,8-16,8.1-16.5c0-1.9-1.2-3.6-2.9-4.2l-59-20.3 C104.3,57.9,97.6,58.4,91.9,61.1L91.9,61.1z M41.9,133.5l-22-7.5l22.5-65.6l22,7.5L41.9,133.5L41.9,133.5z"/> <path fill="#3d8abe" d="M212.9,139.5l-34.3-70.2l28.7-14l34.3,70.2L212.9,139.5z"/> <path fill="#040000" d="M207.6,138.5l-10.4,9.5c-9.4,8.6-20,15.9-31.4,21.5l-55,26.9c-2.4,1.2-5.3,0.2-6.5-2.3 c-1.2-2.4-0.2-5.3,2.3-6.6l0.7-0.3l30.1-14.7c2.2-1.1,3.1-3.7,2-5.8c-1.1-2.2-3.7-3.1-5.8-2l-30.1,14.7l-15.1,7.4 c-2.4,1.2-5.3,0.2-6.5-2.3c-0.6-1.2-0.7-2.5-0.2-3.7c0.4-1.3,1.3-2.2,2.5-2.8l11.4-5.6l32.7-16c2.2-1.1,3.1-3.7,2-5.8 c-1.1-2.2-3.7-3.1-5.8-2l-32.7,16l-1.3,0.6l-15.6,7.7c-1.2,0.6-2.5,0.7-3.7,0.2c-1.3-0.4-2.2-1.3-2.8-2.5c-1.2-2.4-0.2-5.3,2.3-6.5 l5.4-2.6l11-5.4l3.1-1.5l25.3-12.4c2.2-1.1,3.1-3.7,2-5.8s-3.7-3.1-5.8-2L84,147.8l-12,5.9c-2.4,1.2-5.3,0.2-6.6-2.3 c-0.6-1.2-0.7-2.5-0.2-3.7c0.4-1.3,1.3-2.2,2.5-2.8l21-10.3c2.2-1.1,3.1-3.7,2-5.8c-1.1-2.2-3.7-3.1-5.8-2l-21,10.3 c-3.3,1.6-5.7,4.4-6.9,7.8c-1.2,3.4-1,7.1,0.6,10.4c1,2,2.5,3.7,4.2,5c-3,4-3.8,9.5-1.4,14.3c1.6,3.3,4.4,5.7,7.8,6.9 c1.4,0.5,2.9,0.7,4.3,0.7c0,2.2,0.4,4.3,1.4,6.3c2.4,4.8,7.2,7.6,12.2,7.6c2,0,4-0.4,6-1.4l3.1-1.5c0.1,1.6,0.6,3.2,1.3,4.8 c2.4,4.8,7.2,7.6,12.2,7.6c2,0,4-0.4,6-1.4l55-26.9c12.2-6,23.5-13.7,33.5-22.9l12.3-11.3l28.1-13.8c2.2-1.1,3.1-3.7,2-5.8 l-34.4-70.1c-0.5-1.1-1.4-1.8-2.5-2.2c-1.1-0.4-2.3-0.3-3.3,0.2l-28.7,14c-2.2,1.1-3.1,3.7-2,5.8L207.6,138.5z M205.2,61.1 l30.5,62.4l-20.9,10.2l-30.5-62.4L205.2,61.1z"/></g>
</svg>