<?xml version="1.0" encoding="utf-8"?>
<!-- Svg Vector Icons : http://www.onlinewebfonts.com/icon -->
<!DOCTYPE svg PUBLIC "-//W3C//DTD SVG 1.1//EN" "http://www.w3.org/Graphics/SVG/1.1/DTD/svg11.dtd">
<svg version="1.1" xmlns="http://www.w3.org/2000/svg" xmlns:xlink="http://www.w3.org/1999/xlink" x="0px" y="0px" viewBox="0 0 256 256" enable-background="new 0 0 256 256" xml:space="preserve">
<metadata> Svg Vector Icons : http://www.onlinewebfonts.com/icon </metadata>
<g><g><path fill="#000000" d="M196.8,78.2h8.5c0.6,0,2.3,0.8,2.7,1.3l37.3,46.5c0.2,0.3,0.7,1.7,0.7,2.1V185c0,2.9-1.2,5.5-3.1,7.5c-2,1.9-4.6,3.1-7.5,3.1h-12.9c-1.6,13.1-12.5,23.2-25.6,24.1v-6.8c10.6-1,19-9.9,19-20.7c0-10.8-8.4-19.7-19-20.6v-6.8c13.1,0.9,23.9,11,25.6,24h12.9c1.1,0,2-0.4,2.7-1.1c0.7-0.7,1.1-1.6,1.1-2.7v-41.2h-42.3V137h42.4v-7.7l-19-23.7h-23.4v-6.8h18L203.7,85h-6.8V78.2L196.8,78.2z M86.8,42.7c4.2,2.3,8.1,5.3,11.5,8.6l0,0c1.7,1.7,3.2,3.4,4.6,5.3h37.9c3.8,0,7.2,1.5,9.7,4v0c2.5,2.5,4,5.9,4,9.6v8h42.4V85h-42.4v103.8h13c1.7-13.7,13.5-24.1,27.5-24.1c0.6,0,1.2,0,1.9,0v6.8c-0.6-0.1-1.3-0.1-1.9-0.1c-11.4,0-20.9,9.4-20.9,20.7c0,11.4,9.4,20.7,20.9,20.7c0.6,0,1.2,0,1.9-0.1v6.8c-0.7,0-1.3,0-1.9,0c-13.9,0-25.8-10.5-27.5-24.2h-69c-1,8-5.4,14.9-11.7,19.2v-9c3.2-3.6,5.1-8.4,5.1-13.5c0-5.2-1.9-9.9-5.1-13.5v-9c6.3,4.3,10.7,11.2,11.7,19.1h49.2V70.2c0-1.9-0.8-3.6-2-4.8v0c-1.2-1.3-2.9-2-4.8-2h-33.6c3.9,7.2,6.1,15.5,6.1,24.3c0,14.1-5.8,27-15.2,36.3c-3.4,3.4-7.3,6.3-11.5,8.6v-8c2.4-1.6,4.6-3.4,6.7-5.5c8.1-8.1,13.1-19.2,13.1-31.5c0-12.3-5-23.4-13.2-31.5v0c-2-2-4.3-3.9-6.7-5.5L86.8,42.7L86.8,42.7z M196.8,98.9h-8c-6,0-11,4.9-11,10.9V133c0,5.9,4.9,10.8,10.9,10.8h8.1V137h-8.1c-2.2,0-4-1.8-4-4v-23.2c0-2.3,1.9-4.1,4.2-4.1h8L196.8,98.9L196.8,98.9z M61.7,36.2c9.1,0,17.6,2.3,25,6.5v7.9C79.6,45.8,71,43,61.7,43c-2.8,0-5.6,0.2-8.2,0.7v-6.9C56.2,36.5,58.9,36.2,61.7,36.2L61.7,36.2L61.7,36.2z M86.8,214.8c-4.5,3.1-9.9,5-15.8,5c-6.6,0-12.7-2.3-17.5-6.2v-10c3.7,5.7,10.2,9.4,17.5,9.4c6.3,0,11.9-2.8,15.8-7.2V214.8L86.8,214.8z M86.8,124.6v7.9c-7.4,4.1-16,6.5-25,6.5c-2.8,0-5.5-0.2-8.2-0.7v-6.9c2.6,0.5,5.4,0.8,8.2,0.8C71,132.2,79.6,129.4,86.8,124.6L86.8,124.6L86.8,124.6z M86.8,169.7v9c-3.8-4.4-9.5-7.2-15.8-7.2c-7.3,0-13.7,3.8-17.5,9.5v-10c4.8-3.9,10.9-6.2,17.5-6.2C76.8,164.7,82.2,166.6,86.8,169.7L86.8,169.7L86.8,169.7z M55.1,111c-1.2,0-2.4-0.5-3.3-1.4L36,93c-1.8-1.8-1.7-4.7,0.2-6.5c1.9-1.7,4.8-1.7,6.5,0.2l13.1,13.7l26.9-25.2c1.9-1.7,4.8-1.7,6.5,0.2l0.6,0.7c1.8,1.8,1.7,4.7-0.2,6.5l-29.4,27.7C58.7,111.5,56.7,111.7,55.1,111z M53.5,213.5c-5.4-4.4-9.1-10.7-10-18H32.7c-7.5,0-13.7-6.1-13.7-13.6v-65.4c-5.7-8.3-9.1-18.2-9.1-28.9c0-14.1,5.8-27,15.2-36.3c7.5-7.5,17.4-12.7,28.3-14.4v6.9c-9.1,1.7-17.2,6.1-23.5,12.3c-8.1,8.1-13.2,19.3-13.2,31.5c0,12.3,5,23.4,13.2,31.5h0c6.3,6.3,14.4,10.7,23.5,12.3v6.9c-10.6-1.7-20.2-6.6-27.6-13.8v57.4c0,3.8,3.1,6.8,6.9,6.8h10.8c0.9-7.2,4.6-13.5,10-17.9V181c-2.1,3.2-3.4,7.1-3.4,11.3c0,4.2,1.2,8.1,3.4,11.3V213.5z"/></g></g>
</svg>